<svg xmlns="http://www.w3.org/2000/svg" viewBox="0 0 32 32" fill="none">
  <defs>
    <linearGradient id="grad" x1="0%" y1="0%" x2="100%" y2="100%">
      <stop offset="0%" style="stop-color:#8b5cf6"/>
      <stop offset="100%" style="stop-color:#f43f5e"/>
    </linearGradient>
  </defs>
  <rect width="32" height="32" rx="8" fill="url(#grad)"/>
  <path d="M22 13H10m12 0a2 2 0 012 2v6a2 2 0 01-2 2H10a2 2 0 01-2-2v-6a2 2 0 012-2m12 0V11a2 2 0 00-2-2M10 13V11a2 2 0 012-2m0 0V7a2 2 0 012-2h4a2 2 0 012 2v2M12 9h8" stroke="white" stroke-width="1.5" stroke-linecap="round" stroke-linejoin="round"/>
</svg>
